/*
 * SPDX-FileCopyrightText: 2024 M5Stack Technology CO LTD
 *
 * SPDX-License-Identifier: MIT
 */
#include "Arduino.h"
#include <driver/ledc.h>
#include "buzzer.h"

const int buzzerPin = 40;
const int channel   = 5;

int melody_tokyo_drift[] = {
  NOTE_AS4, REST, NOTE_AS4, REST, NOTE_AS4, REST, NOTE_AS4, REST,
  NOTE_AS4, NOTE_B4, NOTE_DS5,
  NOTE_AS4, REST, NOTE_AS4, REST,
  NOTE_AS4, NOTE_B4, NOTE_DS5,
  NOTE_AS4, REST, NOTE_AS4, REST,
  NOTE_AS4, NOTE_B4, NOTE_DS5,
  NOTE_AS4, REST, NOTE_AS4, REST,
  NOTE_AS4, NOTE_B4, NOTE_DS5,
  NOTE_F5, REST, NOTE_F5, REST,
  NOTE_GS5, NOTE_FS5, NOTE_F5,
  NOTE_AS4, REST, NOTE_AS4, REST,
  NOTE_GS5, NOTE_FS5, NOTE_F5,
  NOTE_AS4, REST, NOTE_AS4, REST,
  NOTE_AS4, NOTE_B4, NOTE_DS5,
  NOTE_AS4, REST, NOTE_AS4, REST,
  NOTE_AS4, NOTE_B4, NOTE_DS5,
  NOTE_AS4, REST, NOTE_AS4, REST,
  REST
};

int durations_tokyo_drift[] = {
  4, 4, 4, 4, 4, 4, 4, 4,
  3, 3, 4,
  4, 4, 4, 4,
  3, 3, 4,
  4, 4, 4, 4,
  3, 3, 4,
  4, 4, 4, 4,
  3, 3, 4,
  4, 4, 4, 4,
  3, 3, 4,
  4, 4, 4, 4,
  3, 3, 4,
  4, 4, 4, 4,
  3, 3, 4,
  4, 4, 4, 4,
  3, 3, 4,
  4, 4, 4, 4,
  1
};

int melody_doom[] = {
  NOTE_E2, NOTE_E2, NOTE_E3, NOTE_E2, NOTE_E2, NOTE_D3, NOTE_E2, NOTE_E2, 
  NOTE_C3, NOTE_E2, NOTE_E2, NOTE_AS2, NOTE_E2, NOTE_E2, NOTE_B2, NOTE_C3,
  NOTE_E2, NOTE_E2, NOTE_E3, NOTE_E2, NOTE_E2, NOTE_D3, NOTE_E2, NOTE_E2,
  NOTE_C3, NOTE_E2, NOTE_E2, NOTE_AS2,
  
  NOTE_E2, NOTE_E2, NOTE_E3, NOTE_E2, NOTE_E2, NOTE_D3, NOTE_E2, NOTE_E2, 
  NOTE_C3, NOTE_E2, NOTE_E2, NOTE_AS2, NOTE_E2, NOTE_E2, NOTE_B2, NOTE_C3,
  NOTE_E2, NOTE_E2, NOTE_E3, NOTE_E2, NOTE_E2, NOTE_D3, NOTE_E2, NOTE_E2,
  NOTE_C3, NOTE_E2, NOTE_E2, NOTE_AS2,
  

  NOTE_E2, NOTE_E2, NOTE_E3, NOTE_E2, NOTE_E2, NOTE_D3, NOTE_E2, NOTE_E2, 
  NOTE_C3, NOTE_E2, NOTE_E2, NOTE_AS2, NOTE_E2, NOTE_E2, NOTE_B2, NOTE_C3,
  NOTE_E2, NOTE_E2, NOTE_E3, NOTE_E2, NOTE_E2, NOTE_D3, NOTE_E2, NOTE_E2,
  NOTE_C3, NOTE_E2, NOTE_E2, NOTE_AS2,
  
  NOTE_E2, NOTE_E2, NOTE_E3, NOTE_E2, NOTE_E2, NOTE_D3, NOTE_E2, NOTE_E2, 
  NOTE_C3, NOTE_E2, NOTE_E2, NOTE_AS2, NOTE_E2, NOTE_E2, NOTE_B2, NOTE_C3,
  NOTE_E2, NOTE_E2, NOTE_E3, NOTE_E2, NOTE_E2, NOTE_D3, NOTE_E2, NOTE_E2,
  NOTE_FS3, NOTE_D3, NOTE_B2, NOTE_A3, NOTE_FS3, NOTE_B2, NOTE_D3, NOTE_FS3, NOTE_A3, NOTE_FS3, NOTE_D3, NOTE_B2,
  
  NOTE_E2, NOTE_E2, NOTE_E3, NOTE_E2, NOTE_E2, NOTE_D3, NOTE_E2, NOTE_E2, 
  NOTE_C3, NOTE_E2, NOTE_E2, NOTE_AS2, NOTE_E2, NOTE_E2, NOTE_B2, NOTE_C3,
  NOTE_E2, NOTE_E2, NOTE_E3, NOTE_E2, NOTE_E2, NOTE_D3, NOTE_E2, NOTE_E2,
  NOTE_C3, NOTE_E2, NOTE_E2, NOTE_AS2,
  
  NOTE_E2, NOTE_E2, NOTE_E3, NOTE_E2, NOTE_E2, NOTE_D3, NOTE_E2, NOTE_E2, 
  NOTE_C3, NOTE_E2, NOTE_E2, NOTE_AS2, NOTE_E2, NOTE_E2, NOTE_B2, NOTE_C3,
  NOTE_E2, NOTE_E2, NOTE_E3, NOTE_E2, NOTE_E2, NOTE_D3, NOTE_E2, NOTE_E2,
  NOTE_B3, NOTE_G3, NOTE_E3, NOTE_G3, NOTE_B3, NOTE_E4, NOTE_G3, NOTE_B3, NOTE_E4, NOTE_B3, NOTE_G4, NOTE_B4,

};

int durations_doom[] = {
  8, 8, 8, 8, 8, 8, 8, 8, 
  8, 8, 8, 8, 8, 8, 8, 8,
  8, 8, 8, 8, 8, 8, 8, 8,
  8, 8, 8, 2,
  
  8, 8, 8, 8, 8, 8, 8, 8, 
  8, 8, 8, 8, 8, 8, 8, 8,
  8, 8, 8, 8, 8, 8, 8, 8,
  8, 8, 8, 2,
  

  8, 8, 8, 8, 8, 8, 8, 8, 
  8, 8, 8, 8, 8, 8, 8, 8,
  8, 8, 8, 8, 8, 8, 8, 8,
  8, 8, 8, 2,
  
  8, 8, 8, 8, 8, 8, 8, 8, 
  8, 8, 8, 8, 8, 8, 8, 8,
  8, 8, 8, 8, 8, 8, 8, 8,
  16, 16, 16, 16, 16, 16, 16, 16, 16, 16, 16, 16,
  
  8, 8, 8, 8, 8, 8, 8, 8, 
  8, 8, 8, 8, 8, 8, 8, 8,
  8, 8, 8, 8, 8, 8, 8, 8,
  8, 8, 8, 2,
  
  8, 8, 8, 8, 8, 8, 8, 8, 
  8, 8, 8, 8, 8, 8, 8, 8,
  8, 8, 8, 8, 8, 8, 8, 8,
  16, 16, 16, 16, 16, 16, 16, 16, 16, 16, 16, 16,

};



int melody_rick[] = {
  NOTE_A4, REST, NOTE_B4, REST, NOTE_C5, REST, NOTE_A4, REST,
  NOTE_D5, REST, NOTE_E5, REST, NOTE_D5, REST,

  NOTE_G4, NOTE_A4, NOTE_C5, NOTE_A4, NOTE_E5, NOTE_E5, REST,
  NOTE_D5, REST,

  NOTE_G4, NOTE_A4, NOTE_C5, NOTE_A4, NOTE_D5, NOTE_D5, REST,
  NOTE_C5, REST, NOTE_B4, NOTE_A4, REST,

  NOTE_G4, NOTE_A4, NOTE_C5, NOTE_A4, NOTE_C5, NOTE_D5, REST,
  NOTE_B4, NOTE_A4, NOTE_G4, REST, NOTE_G4, REST, NOTE_D5, REST, NOTE_C5, REST,

  NOTE_G4, NOTE_A4, NOTE_C5, NOTE_A4, NOTE_E5, NOTE_E5, REST,
  NOTE_D5, REST,

  NOTE_G4, NOTE_A4, NOTE_C5, NOTE_A4, NOTE_G5, NOTE_B4, REST,
  NOTE_C5, REST, NOTE_B4, NOTE_A4, REST,

  NOTE_G4, NOTE_A4, NOTE_C5, NOTE_A4, NOTE_C5, NOTE_D5, REST,
  NOTE_B4, NOTE_A4, NOTE_G4, REST, NOTE_G4, REST, NOTE_D5, REST, NOTE_C5, REST,

  NOTE_C5, REST, NOTE_D5, REST, NOTE_G4, REST, NOTE_D5, REST, NOTE_E5, REST,
  NOTE_G5, NOTE_F5, NOTE_E5, REST,

  NOTE_C5, REST, NOTE_D5, REST, NOTE_G4, REST
};

int durations_rick[] = {
  8, 8, 8, 8, 8, 8, 8, 4,
  8, 8, 8, 8, 2, 2,

  8, 8, 8, 8, 2, 8, 8,
  2, 8,

  8, 8, 8, 8, 2, 8, 8,
  4, 8, 8, 8, 8,

  8, 8, 8, 8, 2, 8, 8,
  2, 8, 4, 8, 8, 8, 8, 8, 1, 4,

  8, 8, 8, 8, 2, 8, 8,
  2, 8,

  8, 8, 8, 8, 2, 8, 8,
  2, 8, 8, 8, 8,

  8, 8, 8, 8, 2, 8, 8,
  4, 8, 3, 8, 8, 8, 8, 8, 1, 4,

  2, 6, 2, 6, 4, 4, 2, 6, 2, 3,
  8, 8, 8, 8,

  2, 6, 2, 6, 2, 1
};


void setup_pwm_buzzer(void) {
    ledcSetup(channel, 4000, 8);        // 配置PWM通道：通道0，频率3000Hz，分辨率8位
    ledcAttachPin(buzzerPin, channel);  // 将PWM通道绑定到GPIO
}

void buzzer_sound(uint32_t frequency, uint32_t duration_ms) {
    ledcWriteTone(channel, frequency);
    ledcWrite(channel, 127);

    vTaskDelay(duration_ms / portTICK_PERIOD_MS);

    ledcWriteTone(channel, 0);
    digitalWrite(channel, 0);
}

void beep(void) {
    buzzer_sound(4000, 100);
}


void start_tone(void){
    //tokyo_drift();
    //rick_rolled();
    //doom_theme();

    buzzer_sound(A_NOTE_D1, 200);
    buzzer_sound(A_NOTE_D5, 200);
    buzzer_sound(A_NOTE_D3, 200);
    buzzer_sound(A_NOTE_D4, 200);
}

void doom_theme(void) {
    //buzzer_sound(NOTE_D1, 200);
    //buzzer_sound(NOTE_D5, 200);
    //buzzer_sound(NOTE_D3, 200);
    //buzzer_sound(NOTE_D4, 200);

    int size = sizeof(durations_doom) / sizeof(int);
    USBSerial.print(size);

    for (int note = 0; note < size; note++) {
        //to calculate the note duration, take one second divided by the note type.
        //e.g. quarter note = 1000 / 4, eighth note = 1000/8, etc.
        int duration = 500 / durations_doom[note];
        buzzer_sound(melody_doom[note], duration);

        //to distinguish the notes, set a minimum time between them.
        //the note's duration + 30% seems to work well:
        int pauseBetweenNotes = duration * 1.30;
        delay(pauseBetweenNotes);
        
        //stop the tone playing:
        noTone(channel);
    }
    
}

void rick_rolled(void){

    int size = sizeof(durations_rick) / sizeof(int);

    for (int note = 0; note < size; note++) {
        //to calculate the note duration, take one second divided by the note type.
        //e.g. quarter note = 1000 / 4, eighth note = 1000/8, etc.
        int duration = 500 / durations_rick[note];
        buzzer_sound(melody_rick[note], duration);

        //to distinguish the notes, set a minimum time between them.
        //the note's duration + 30% seems to work well:
        int pauseBetweenNotes = duration * 1.30;
        delay(pauseBetweenNotes);

        //stop the tone playing:
        noTone(channel);
    }
}

void tokyo_drift(void)
{
  int size = sizeof(durations_tokyo_drift) / sizeof(int);

  for (int note = 0; note < size; note++) {
    //to calculate the note duration, take one second divided by the note type.
    //e.g. quarter note = 1000 / 4, eighth note = 1000/8, etc.
    int duration = 750 / durations_tokyo_drift[note];
    buzzer_sound(melody_tokyo_drift[note], duration);

    //to distinguish the notes, set a minimum time between them.
    //the note's duration + 30% seems to work well:
    int pauseBetweenNotes = duration * 1.30;
    delay(pauseBetweenNotes);

    //stop the tone playing:
    noTone(channel);
  }
}